<svg xmlns="http://www.w3.org/2000/svg" width="550" height="220" viewBox="0 0 550 220">
  <style>
    text { font-family: 'Fira Code', 'Cascadia Code', 'JetBrains Mono', Consolas, 'Courier New', monospace; }
  </style>

  <rect width="550" height="220" rx="10" fill="#1a1b26"/>

  <rect x="24" y="16" width="185" height="190" rx="8" fill="#1f2335"/>

  <!-- Gutter separator -->
  <line x1="59" y1="16" x2="59" y2="188" stroke="#3b4261" stroke-width="1"/>

  <!-- Statusline separator -->
  <line x1="24" y1="188" x2="209" y2="188" stroke="#3b4261" stroke-width="1"/>

  <text font-size="12" fill="#3b4261" text-anchor="end">
    <tspan x="53" y="38">1</tspan>
    <tspan x="53" y="58">2</tspan>
    <tspan x="53" y="78">3</tspan>
    <tspan x="53" y="98">4</tspan>
    <tspan x="53" y="118">5</tspan>
    <tspan x="53" y="138">6</tspan>
    <tspan x="53" y="158">7</tspan>
    <tspan x="53" y="178">~</tspan>
  </text>

  <text x="101" y="58"  font-size="13" fill="#c0caf5" xml:space="preserve">    ●</text>
  <text x="101" y="78"  font-size="13" fill="#c0caf5" xml:space="preserve">   ╱ ╲</text>
  <text x="101" y="98"  font-size="13" fill="#c0caf5" xml:space="preserve">  ●   ●</text>
  <text x="101" y="118" font-size="13" fill="#c0caf5" xml:space="preserve"> ╱ ╲   </text>
  <text x="101" y="138" font-size="13" fill="#c0caf5" xml:space="preserve">●   ●   ●</text>

  <rect x="156" y="104" width="8" height="15" rx="1" fill="#7aa2f7"/>

  <text x="28"  y="201" font-size="11" fill="#9ece6a" font-weight="bold">INSERT</text>
  <text x="82"  y="201" font-size="11" fill="#565f89">[No Name]</text>
  <text x="207" y="201" font-size="11" fill="#565f89" text-anchor="end">5:8</text>

  <rect x="24" y="16" width="185" height="190" rx="8" fill="none" stroke="#3b4261" stroke-width="1"/>

  <text y="36" font-size="14">
    <tspan x="240" fill="#7aa2f7" font-weight="bold">NaiKiDEV</tspan><tspan fill="#565f89">@</tspan><tspan fill="#7aa2f7" font-weight="bold">github</tspan>
  </text>

  <line x1="240" y1="46" x2="370" y2="46" stroke="#3b4261" stroke-width="1"/>

  <text font-size="13"><tspan x="240" y="68"  fill="#7aa2f7">Name</tspan><tspan x="308" fill="#c0caf5">Paulius Čepovič</tspan></text>
  <text font-size="13"><tspan x="240" y="88"  fill="#7aa2f7">Role</tspan><tspan x="308" fill="#c0caf5">Senior Software Engineer</tspan></text>
  <text font-size="13"><tspan x="240" y="108" fill="#7aa2f7">At</tspan><tspan x="308" fill="#c0caf5">Gritmind</tspan></text>
  <text font-size="13"><tspan x="240" y="128" fill="#7aa2f7">Lang</tspan><tspan x="308" fill="#c0caf5">TypeScript, Go, C#, React</tspan></text>
  <text font-size="13"><tspan x="240" y="148" fill="#7aa2f7">Editor</tspan><tspan x="308" fill="#c0caf5">Neovim</tspan></text>
  <text font-size="13"><tspan x="240" y="168" fill="#7aa2f7">Based</tspan><tspan x="308" fill="#c0caf5">Lithuania</tspan></text>

  <rect x="240" y="190" width="18" height="10" rx="2" fill="#414868"/>
  <rect x="262" y="190" width="18" height="10" rx="2" fill="#f7768e"/>
  <rect x="284" y="190" width="18" height="10" rx="2" fill="#9ece6a"/>
  <rect x="306" y="190" width="18" height="10" rx="2" fill="#e0af68"/>
  <rect x="328" y="190" width="18" height="10" rx="2" fill="#7aa2f7"/>
  <rect x="350" y="190" width="18" height="10" rx="2" fill="#bb9af7"/>
  <rect x="372" y="190" width="18" height="10" rx="2" fill="#7dcfff"/>
  <rect x="394" y="190" width="18" height="10" rx="2" fill="#c0caf5"/>
</svg>
